<?xml version="1.0" encoding="UTF-8"?>
<svg width="200px" height="200px" viewBox="0 0 200 200" version="1.1" xmlns="http://www.w3.org/2000/svg" xmlns:xlink="http://www.w3.org/1999/xlink">
    <title>Artboard</title>
    <g id="Artboard" stroke="none" stroke-width="1" fill="none" fill-rule="evenodd">
        <g id="logo" transform="translate(19.000000, 35.000000)" fill="#87D8EB" fill-rule="nonzero">
            <path d="M8.10001048,56.8749941 L16.2000093,56.8749941 L16.2000093,105.625006 L8.10001048,105.625006 C5.95096749,105.627587 3.88920204,104.772394 2.36959808,103.2481 C0.849994112,101.723805 -0.00256781465,99.6556761 5.8098456e-06,97.5 L5.8098456e-06,65 C-0.00256781465,62.8443239 0.849994112,60.7761946 2.36959808,59.2519003 C3.88920204,57.727606 5.95096749,56.8724126 8.10001048,56.8749941 L8.10001048,56.8749941 Z M137.699993,44.6875 L137.699993,113.75 C137.691162,122.720956 130.443346,129.991143 121.499994,130 L40.5000058,130 C31.5566541,129.991143 24.3088378,122.720956 24.3000071,113.75 L24.3000071,44.6875 C24.2982617,39.2997532 26.4311765,34.1321714 30.2291663,30.3224589 C34.0271561,26.5127464 39.1788369,24.3732481 44.5500052,24.375 L72.9000012,24.375 L72.9000012,8.125 C72.9000012,3.63768641 76.5264942,0 81,0 C85.4735058,0 89.0999988,3.63768641 89.0999988,8.125 L89.0999988,24.375 L117.449995,24.375 C122.821163,24.3732481 127.972844,26.5127464 131.770834,30.3224589 C135.568823,34.1321714 137.701738,39.2997532 137.699993,44.6875 Z M66.825002,65 C66.825002,59.390858 62.2918858,54.84375 56.7000035,54.84375 C51.1081212,54.84375 46.5750049,59.390858 46.5750049,65 C46.5750049,70.609142 51.1081212,75.15625 56.7000035,75.15625 C59.3853818,75.15625 61.9608318,74.0864865 63.8596811,72.1817764 C65.7585303,70.2770662 66.825002,67.6936669 66.825002,65 L66.825002,65 Z M64.8000023,97.5 L48.6000047,97.5 L48.6000047,105.625 L64.8000023,105.625 L64.8000023,97.5 Z M89.0999988,97.5 L72.9000012,97.5 L72.9000012,105.625 L89.0999988,105.625 L89.0999988,97.5 Z M115.424995,65 C115.424995,59.390858 110.891879,54.84375 105.299997,54.84375 C99.7081142,54.84375 95.174998,59.390858 95.174998,65 C95.174998,70.609142 99.7081142,75.15625 105.299997,75.15625 C107.985375,75.15625 110.560825,74.0864865 112.459674,72.1817764 C114.358523,70.2770662 115.424995,67.6936669 115.424995,65 L115.424995,65 Z M113.399995,97.5 L97.1999977,97.5 L97.1999977,105.625 L113.399995,105.625 L113.399995,97.5 Z M161.999994,65 L161.999994,97.5 C162.002568,99.6556761 161.150006,101.723805 159.630402,103.2481 C158.110798,104.772394 156.049033,105.627587 153.89999,105.625006 L145.799991,105.625006 L145.799991,56.8749941 L153.89999,56.8749941 C156.049033,56.8724126 158.110798,57.727606 159.630402,59.2519003 C161.150006,60.7761946 162.002568,62.8443239 161.999994,65 Z" id="Shape"></path>
        </g>
    </g>
</svg>